<svg width="209" height="64" xmlns="http://www.w3.org/2000/svg" xmlns:xlink="http://www.w3.org/1999/xlink" overflow="hidden"><defs><clipPath id="clip0"><rect x="594" y="225" width="209" height="64"/></clipPath><clipPath id="clip1"><rect x="595" y="226" width="207" height="62"/></clipPath><clipPath id="clip2"><rect x="595" y="226" width="207" height="62"/></clipPath><clipPath id="clip3"><rect x="595" y="156" width="207" height="261"/></clipPath></defs><g clip-path="url(#clip0)" transform="translate(-594 -225)"><g clip-path="url(#clip1)"><g clip-path="url(#clip2)"><g clip-path="url(#clip3)"><path d="M180.621 100.862C175.564 100.347 171 100.429 166.212 100.418 156.867 100.393 147.524 98.394 138.179 98.463 117.252 98.6447 95.9997 97.4947 74.9984 99.3876 68.7953 99.9373 62.5991 100.404 56.4581 101.195 55.8693 101.267 55.2851 101.34 54.694 101.423 48.9325 102.177 41.4115 101.736 35.6845 102.527 30.6429 103.578 26.7352 104.896 21.9075 104.537 20.6264 104.289 19.2625 103.84 18.4943 102.932 16.8176 100.981 16.0379 99.1967 16.8498 97.7086 17.1143 97.2187 17.5697 96.715 18.0619 96.2619 19.021 95.4201 20.171 94.76 20.7966 94.7025 31.5882 93.5525 43.8311 93.3363 53.5831 93.1316 58.397 93.035 63.3673 92.9039 69.4439 92.6532 83.4831 92.2944 105.621 92.0644 119.674 91.7194 131.953 91.4089 144.265 93.1201 156.425 94.392 161.048 94.8727 163.96 94.8727 168.105 95.0038 168.797 95.013 169.579 95.0383 170.382 95.0613 174.478 95.1924 181.856 94.5461 184.239 95.7904 186.624 97.0485 188.289 97.1796 190.373 99.4911 190.484 101.77 189.644 102.824 188.579 103.206 186.098 104.116 183.823 105.135 181.893 105.448 179.632 105.807 177.808 105.821 177.438 104.958 177.079 104.093 177.282 103.558 177.641 103.162 178.264 102.516 179.389 101.807 180.396 101.329L180.621 100.862Z" fill="#A2806B" transform="matrix(1 0 0 1.00001 595 157.173)"/><path d="M82.2112 111.173C86.0683 110.97 89.9484 110.706 93.794 110.846 98.6585 111.016 102.78 111.568 107.608 111.492 109.236 111.472 119.145 111.504 120.497 111.483 124.713 111.41 128.86 111.424 133.064 111.541 135.854 111.624 138.658 111.791 141.427 112.118 147.943 112.884 154.675 113.399 161.085 114.86 162.714 115.232 164.379 115.543 166.019 115.244 167.647 114.956 170.14 114.094 169.972 112.309 169.781 110.223 168.056 107.626 165.982 106.968 165.347 106.775 163.886 105.876 163.24 105.742 162.631 105.623 162.09 105.195 161.527 105.122 160.197 104.942 159.201 105.554 157.969 105.853 156.531 106.2 153.417 105.227 151.931 105.193 146.685 105.062 143.63 106.4 138.382 106.354 135.281 106.331 132.165 106.235 129.062 106.184 126.084 106.136 123.098 106.223 120.127 106.064 118.052 105.959 116.005 105.393 113.947 105.347 112.183 105.31 110.398 105.634 108.663 105.982 107.18 106.292 105.547 106.161 104.04 106.173 102.663 106.198 100.975 105.851 99.6912 106.173 98.0375 106.593 96.2021 106.605 94.5162 106.771 91.3422 107.083 89.746 106.52 86.5858 106.915 84.6193 107.155 83.168 107.909 81.2061 107.635 80.201 107.491 77.625 108.139 76.6199 108.031 75.5872 107.934 75.5159 108.675 74.5844 108.797 73.4551 108.937 72.3166 108.905 71.1919 108.951 70.7135 108.976 69.4301 108.926 69.0966 109.301 68.6274 109.816 69.5635 110.881 70.2673 111.182 72.8456 112.307 76.5693 111.407 79.2879 111.313 80.2585 111.281 81.2314 111.233 82.2112 111.173Z" fill="#A2806B" transform="matrix(1 0 0 1.00001 595 157.173)"/><text fill="#A2806B" font-family="Arial,Arial_MSFontService,sans-serif" font-weight="700" font-size="5" transform="matrix(2.3 0 0 2.30003 595 399)">Created by Cuputo<tspan font-size="5" x="0" y="4.78254">from the Noun Project</tspan></text></g></g></g></g></svg>